<svg width="95" height="63" viewBox="0 0 95 63" fill="none" xmlns="http://www.w3.org/2000/svg">
<path d="M3.13263 40.7001C1.61588 54.57 13.5379 59.7988 17.0078 59.7988H56.5075C71.5075 55.2988 71.1334 42.7102 68.7319 37.308C64.1817 27.3579 54.4492 26.378 50.1517 27.1318C46.8149 16.2772 38.1441 14.066 34.2258 14.3173C23.3052 14.3173 19.564 22.8603 19.0585 27.1318C8.13805 27.1318 3.89106 36.1774 3.13263 40.7001Z" stroke="black" stroke-width="6" stroke-linecap="round" stroke-linejoin="round"/>
<path d="M44.0078 8.80027C47.3411 5.1336 54.0078 1.29883 61.5078 3.80022C69.0078 6.30162 70.5078 11.3008 72.0078 16.8003C79.0078 15.8008 90.1579 19.3258 91.0078 30.7999C92.0078 44.3007 82.0078 48.3007 76.0078 49.2999" stroke="black" stroke-width="6" stroke-linecap="round" stroke-linejoin="round"/>
</svg>
