<svg xmlns="http://www.w3.org/2000/svg" width="45" height="44" viewBox="0 0 45 44" fill="none">
<circle cx="22.196" cy="22" r="22" fill="#81CDFF"/>
<path d="M30.1245 22.4101C30.1245 26.6392 26.6963 30.0675 22.4676 30.0675C18.2388 30.0675 14.8106 26.6392 14.8106 22.4101C14.8106 18.181 18.2388 14.7527 22.4676 14.7527C26.6963 14.7527 30.1245 18.181 30.1245 22.4101Z" stroke="white" stroke-width="2"/>
<path d="M22.2944 7V10.8109" stroke="white" stroke-width="2" stroke-linecap="round" stroke-linejoin="round"/>
<path d="M22.2943 34.1824V37.9933" stroke="white" stroke-width="2" stroke-linecap="round" stroke-linejoin="round"/>
<path d="M37.7903 22.4958L33.9802 22.4958" stroke="white" stroke-width="2" stroke-linecap="round" stroke-linejoin="round"/>
<path d="M10.6074 22.4958L6.79731 22.4958" stroke="white" stroke-width="2" stroke-linecap="round" stroke-linejoin="round"/>
<path d="M33.2515 33.4524L30.557 30.758" stroke="white" stroke-width="2" stroke-linecap="round" stroke-linejoin="round"/>
<path d="M14.03 14.2317L11.3356 11.5373" stroke="white" stroke-width="2" stroke-linecap="round" stroke-linejoin="round"/>
<path d="M11.3368 33.4521L14.0313 30.7578" stroke="white" stroke-width="2" stroke-linecap="round" stroke-linejoin="round"/>
<path d="M30.5586 14.2317L33.2531 11.5373" stroke="white" stroke-width="2" stroke-linecap="round" stroke-linejoin="round"/>
</svg>