<svg xmlns="http://www.w3.org/2000/svg" width="45" height="44" viewBox="0 0 45 44" fill="none">
<circle cx="22.7906" cy="22" r="22" fill="#81CDFF"/>
<path d="M7.04668 25.2691C6.51284 30.1508 10.7089 31.9911 11.9302 31.9911H25.8327C31.1121 30.4073 30.9804 25.9766 30.1352 24.0752C28.5337 20.5731 25.1082 20.2282 23.5957 20.4935C22.4212 16.6731 19.3694 15.8949 17.9903 15.9833C14.1467 15.9833 12.8299 18.9901 12.652 20.4935C8.8084 20.4935 7.31362 23.6772 7.04668 25.2691Z" stroke="white" stroke-width="2" stroke-linecap="round" stroke-linejoin="round"/>
<path d="M21.4332 14.0415C22.6064 12.7509 24.9529 11.4013 27.5926 12.2816C30.2323 13.162 30.7602 14.9216 31.2882 16.8572C33.7519 16.5054 37.6764 17.7461 37.9755 21.7845C38.3274 26.5363 34.8078 27.9442 32.696 28.2959" stroke="white" stroke-width="2" stroke-linecap="round" stroke-linejoin="round"/>
</svg>