<svg version="1.1" id="圖層_1" xmlns="http://www.w3.org/2000/svg" x="0" y="0" viewBox="0 0 100 100" xml:space="preserve" preserveAspectRatio="xMidYMid" width="400" height="400" xmlns:xlink="http://www.w3.org/1999/xlink" style="margin-top:0px;margin-right:0px;margin-bottom:0px;margin-left:0px;display:block;shape-rendering:auto;background-position-x:0%;background-position-y:0%;background-size:auto;background-origin:padding-box;background-clip:border-box;background:scroll rgb(255, 255, 255) none  repeat;width:400px;height:400px;;animation:none"><g class="ldl-scale" style="transform-origin:50px 50px;transform:matrix(0.8, 0, 0, 0.8, 0, 0);;animation:none"><g class="ldl-ani"><g class="ldl-layer"><g class="ldl-ani"><g><g class="ldl-layer"><g class="ldl-ani" style="transform-box:view-box;transform-origin:50px 50px;transform:matrix(0.96, 0, 0, 0.96, 0, 0);animation-duration:100s;animation-timing-function:linear;animation-delay:-100s;animation-iteration-count:infinite;animation-direction:normal;animation-fill-mode:forwards;animation-play-state:paused;animation-name:animate;animation-timeline:auto;animation-range-start:normal;animation-range-end:normal;;animation:none"><path d="M30.3 57.5H19.8c-4.1 0-7.7-3.2-7.8-7.3-.1-4.2 3.3-7.7 7.5-7.7h35.8c2.5 0 4.7-2 4.7-4.4V38v-.1c0-2.5-2.2-4.4-4.7-4.4h-9.5c-4.1 0-7.7-3.2-7.8-7.3-.1-4.2 3.3-7.7 7.5-7.7h32.7c4.1 0 7.7 3.2 7.8 7.3.1 4.2-3.3 7.7-7.5 7.7h-3.8c-2.5 0-4.7 2-4.7 4.4v.2c0 2.5 2.2 4.4 4.7 4.4h5.5c4.1 0 7.7 3.2 7.8 7.3.1 4.2-3.3 7.7-7.5 7.7H49.7c-2.5 0-4.7 2-4.7 4.4v.2c0 2.5 2.2 4.4 4.7 4.4h4.5c4.1 0 7.7 3.2 7.8 7.3.1 4.2-3.3 7.7-7.5 7.7H26.8c-4.1 0-7.7-3.2-7.8-7.3-.1-4.2 3.3-7.7 7.5-7.7h3.8c2.5 0 4.7-2 4.7-4.4V62v-.1c0-2.4-2.2-4.4-4.7-4.4z" fill="#e0e0e0" style="stroke-width:0px;fill:rgb(129, 205, 255);;animation:none"></path></g></g></g></g></g>
<metadata xmlns:d="https://loading.io/stock/"><d:name>cloud</d:name>
<d:tags>weather,mist,fog,smoke,cloud,weather</d:tags>
<d:license>by</d:license>
<d:slug>z1zctu</d:slug></metadata></g></g>
<STYLE type="text/css">@keyframes animate { 0.00% {transform: translate(0.00px,0.00px) rotate(0.00deg) scale(0.96, 0.96) skew(0deg, 0.00deg) ;opacity: 1.00;}4.00% {transform: translate(0.00px,0.00px) rotate(0.00deg) scale(0.96, 0.96) ;}8.00% {animation-timing-function: cubic-bezier(0.68,0.63,0.35,0.29);transform: translate(0.00px,0.00px) rotate(0.00deg) scale(0.96, 0.96) ;}14.00% {transform: translate(0.00px,0.00px) rotate(0.00deg) scale(0.96, 0.96) ;}18.00% {transform: translate(0.00px,0.00px) rotate(0.00deg) scale(0.97, 0.97) ;}22.00% {animation-timing-function: cubic-bezier(0.67,0.66,0.33,0.33);transform: translate(0.00px,0.00px) rotate(0.00deg) scale(0.97, 0.97) ;}26.00% {transform: translate(0.00px,0.00px) rotate(0.00deg) scale(0.97, 0.97) ;}30.00% {transform: translate(0.00px,0.00px) rotate(0.00deg) scale(0.97, 0.97) ;}34.00% {animation-timing-function: cubic-bezier(0.66,0.69,0.33,0.36);transform: translate(0.00px,0.00px) rotate(0.00deg) scale(0.98, 0.98) ;}40.00% {animation-timing-function: cubic-bezier(0.65,0.72,0.32,0.39);transform: translate(0.00px,0.00px) rotate(0.00deg) scale(0.98, 0.98) ;}46.00% {animation-timing-function: cubic-bezier(0.60,0.90,0.23,0.61);transform: translate(0.00px,0.00px) rotate(0.00deg) scale(0.98, 0.98) ;}50.00% {transform: translate(0.00px,0.00px) rotate(0.00deg) scale(0.98, 0.98) ;}54.00% {transform: translate(0.00px,0.00px) rotate(0.00deg) scale(0.98, 0.98) ;}58.00% {animation-timing-function: cubic-bezier(0.68,0.63,0.35,0.29);transform: translate(0.00px,0.00px) rotate(0.00deg) scale(0.98, 0.98) ;}64.00% {transform: translate(0.00px,0.00px) rotate(0.00deg) scale(0.98, 0.98) ;}68.00% {transform: translate(0.00px,0.00px) rotate(0.00deg) scale(0.97, 0.97) ;}72.00% {animation-timing-function: cubic-bezier(0.67,0.66,0.33,0.33);transform: translate(0.00px,0.00px) rotate(0.00deg) scale(0.97, 0.97) ;}76.00% {animation-timing-function: cubic-bezier(0.66,0.67,0.33,0.34);transform: translate(0.00px,0.00px) rotate(0.00deg) scale(0.97, 0.97) ;}82.00% {animation-timing-function: cubic-bezier(0.66,0.68,0.33,0.35);transform: translate(0.00px,0.00px) rotate(0.00deg) scale(0.97, 0.97) ;}88.00% {animation-timing-function: cubic-bezier(0.65,0.71,0.32,0.37);transform: translate(0.00px,0.00px) rotate(0.00deg) scale(0.96, 0.96) ;}94.00% {animation-timing-function: cubic-bezier(0.63,0.78,0.29,0.45);transform: translate(0.00px,0.00px) rotate(0.00deg) scale(0.96, 0.96) ;}100.00% {animation-timing-function: cubic-bezier(0.63,0.78,0.29,0.45);transform: translate(0.00px,0.00px) rotate(0.00deg) scale(0.96, 0.96) ;} }</STYLE><!-- [ldio] generated by https://loading.io --></svg>