<svg width="84" height="95" viewBox="0 0 84 95" fill="none" xmlns="http://www.w3.org/2000/svg">
<path d="M31.5 48.5L26.5 82" stroke="black" stroke-width="6" stroke-linecap="round" stroke-linejoin="round"/>
<path d="M42 58L37 91.5" stroke="black" stroke-width="6" stroke-linecap="round" stroke-linejoin="round"/>
<path d="M54 49L49 82.5" stroke="black" stroke-width="6" stroke-linecap="round" stroke-linejoin="round"/>
<path d="M21.22 61C14.4814 60.1479 1.43429 54.5239 3.15478 38.845C4.0151 33.7323 8.83258 23.5069 21.22 23.5069C21.7934 18.6782 26.0371 9.02089 38.4247 9.02089C42.8693 8.73685 52.7048 11.2364 56.4899 23.5069C61.3646 22.6547 72.4044 23.7624 77.5659 35.0104C80.29 41.1173 81.0069 54.8648 62.0815 61" stroke="black" stroke-width="6" stroke-linecap="round" stroke-linejoin="round"/>
<path d="M52.7617 11.6494C55.3135 8.22087 59.3973 6 63.9997 6C71.7317 6 77.9997 12.268 77.9997 20C77.9997 22.6594 77.2582 25.1455 75.9707 27.2631C77.3307 28.7039 78.5789 30.4193 79.6501 32.4537C82.3726 29.0369 83.9997 24.7085 83.9997 20C83.9997 8.95431 75.0454 0 63.9997 0C57.3645 0 51.4839 3.23114 47.8457 8.2058C49.5163 9.05106 51.192 10.1778 52.7617 11.6494Z" fill="black"/>
</svg>
