<svg fill="none" height="260" viewBox="0 0 405 260" width="405" xmlns="http://www.w3.org/2000/svg" xmlns:xlink="http://www.w3.org/1999/xlink"><mask id="a" fill="#fff"><path clip-rule="evenodd" d="m332.535 258c3.679 0 6.748-2.849 6.843-6.527.034-1.32.052-2.644.052-3.973 0-80.91-63.8-146.5-142.5-146.5-78.701 0-142.5003 65.59-142.5003 146.5 0 1.329.0172 2.653.0514 3.973.0952 3.678 3.1641 6.527 6.8434 6.527z" fill="#fff" fill-rule="evenodd"/></mask><g stroke="#000" stroke-linecap="round" stroke-width="31"><path d="m16 244h373.5"/><path d="m72 104.07-26-26.0002"/><path d="m201.602 52.7695v-36.7695"/><path d="m347 79.0698-25.456 25.4562"/></g><path d="m339.378 251.473 29.99.777zm-29.948-3.973c0 1.07-.014 2.135-.042 3.197l59.98 1.553c.041-1.579.062-3.162.062-4.75zm-112.5-116.5c61.354 0 112.5 51.371 112.5 116.5h60c0-96.69-76.454-176.5-172.5-176.5zm-112.5003 116.5c0-65.129 51.1453-116.5 112.5003-116.5v-60c-96.047 0-172.5003 79.81-172.5003 176.5zm.0413 3.197c-.0275-1.062-.0413-2.127-.0413-3.197h-60c0 1.588.0205 3.171.0614 4.75zm-23.1465 37.303h271.2105v-60h-271.2105zm-36.8334-35.75c.5378 20.764 17.7261 35.75 36.8334 35.75v-60c11.7486 0 22.7993 9.289 23.1465 22.697zm284.8969-1.553c.348-13.408 11.398-22.697 23.147-22.697v60c19.107 0 36.295-14.986 36.833-35.75z" fill="#000" mask="url(#a)"/></svg>