<svg width="95" height="69" viewBox="0 0 95 69" fill="none" xmlns="http://www.w3.org/2000/svg">
<path d="M53.4078 51H77.0248C92.9238 46.2527 92.5273 32.9725 89.9818 27.2734C85.1589 16.7766 74.8431 15.7429 70.2881 16.5381C66.7513 5.08705 57.5609 2.75442 53.4078 3.01949C41.8327 3.01949 37.8673 12.0319 37.3315 16.5381C25.7566 16.5381 21.2551 26.0807 20.4512 30.8519M3.81055 40H53.4078C56.2087 40 62.3474 39.4794 61.8105 32.5C61.3105 26 54.8105 26.5 47.8105 26.5" stroke="black" stroke-width="6" stroke-linecap="round" stroke-linejoin="round"/>
<path d="M3.31055 51.9998H34.8795C37.6789 51.9998 43.8141 52.5204 43.2775 59.5004C42.7778 66.0009 36.2815 65.5009 29.2855 65.5009" stroke="black" stroke-width="6" stroke-linecap="round" stroke-linejoin="round"/>
</svg>
